Coordinates
version=1
nRows=43
nColumns=12
inDegrees=yes

Units are S.I. units (second, meters, Newtons, ...)
Angles are in degrees

endheader
time	SC_y	SC_z	SC_x	AC_y	AC_z	AC_x	GH_y	GH_z	GH_yy	EL_x	PS_y
       0.0              -54.12          23.56          31.75          63.19          6.164          13.57         -146.6          20.09         -62.97          59.39          116.3
   0.03018              -54.11          23.56          31.75          63.19          6.164          13.57         -146.6           20.1         -62.95          59.38          116.3
   0.06037              -54.11          23.56          31.76          63.19          6.164          13.57         -146.5          20.11         -62.92          59.38          116.3
   0.09055              -54.11          23.56          31.76          63.19          6.164          13.57         -146.5          20.13         -62.89          59.37          116.3
    0.1207               -54.1          23.56          31.77          63.19          6.163          13.57         -146.5          20.14         -62.86          59.37          116.3
    0.1509              -54.09          23.56          31.78          63.19          6.163          13.57         -146.4          20.15         -62.83          59.36          116.3
    0.1811              -54.09          23.56          31.78          63.18          6.163          13.57         -146.4          20.16          -62.8          59.35          116.3
    0.2113              -54.08          23.56          31.79          63.18          6.162          13.56         -146.3          20.18         -62.76          59.34          116.3
    0.2415              -54.07          23.56           31.8          63.18          6.162          13.56         -146.3          20.19         -62.72          59.34          116.3
    0.2716              -54.07          23.56          31.81          63.18          6.161          13.56         -146.2          20.21         -62.68          59.33          116.3
    0.3018              -54.06          23.57          31.82          63.18          6.161          13.56         -146.2          20.23         -62.63          59.32          116.3
     0.332              -54.05          23.57          31.83          63.17          6.161          13.56         -146.1          20.25         -62.58          59.31          116.3
    0.3622              -54.04          23.57          31.84          63.17           6.16          13.56         -146.0          20.27         -62.53          59.29          116.4
    0.3924              -54.03          23.57          31.86          63.17          6.159          13.56         -145.9          20.29         -62.47          59.28          116.4
    0.4226              -54.02          23.57          31.87          63.17          6.159          13.55         -145.9          20.32         -62.41          59.27          116.4
    0.4527              -54.01          23.57          31.88          63.16          6.158          13.55         -145.8          20.34         -62.34          59.25          116.4
    0.4829              -53.99          23.57           31.9          63.16          6.157          13.55         -145.7          20.37         -62.27          59.24          116.4
    0.5131              -53.98          23.57          31.92          63.15          6.157          13.55         -145.6           20.4         -62.19          59.22          116.4
    0.5433              -53.96          23.57          31.94          63.15          6.156          13.54         -145.5          20.44         -62.11           59.2          116.4
    0.5735              -53.95          23.57          31.96          63.15          6.155          13.54         -145.3          20.47         -62.01          59.18          116.4
    0.6037              -53.93          23.57          31.98          63.14          6.154          13.54         -145.2          20.51         -61.91          59.16          116.5
    0.6338              -53.91          23.57          32.01          63.14          6.153          13.54         -145.0          20.56         -61.79          59.14          116.5
     0.664              -53.89          23.57          32.03          63.13          6.152          13.53         -144.9          20.61         -61.67          59.11          116.5
    0.6942              -53.86          23.57          32.07          63.12           6.15          13.53         -144.7          20.66         -61.53          59.08          116.5
    0.7244              -53.83          23.57           32.1          63.12          6.149          13.52         -144.5          20.73         -61.37          59.05          116.6
    0.7546               -53.8          23.57          32.14          63.11          6.147          13.52         -144.2          20.79          -61.2          59.01          116.6
    0.7848              -53.77          23.57          32.18           63.1          6.145          13.51         -144.0          20.87          -61.0          58.97          116.6
    0.8149              -53.73          23.57          32.23          63.09          6.143           13.5         -143.7          20.96         -60.78          58.92          116.7
    0.8451              -53.68          23.58          32.28          63.08          6.141           13.5         -143.4          21.06         -60.53          58.87          116.7
    0.8753              -53.63          23.58          32.35          63.06          6.138          13.49         -143.0          21.17         -60.25          58.81          116.7
    0.9055              -53.58          23.58          32.42          63.05          6.135          13.48         -142.6          21.29         -59.93          58.74          116.8
    0.9357              -53.51          23.58           32.5          63.03          6.131          13.47         -142.1          21.44         -59.56          58.66          116.9
    0.9659              -53.44          23.58          32.59          63.01          6.127          13.45         -141.5          21.61         -59.14          58.57          116.9
     0.996              -53.35          23.58           32.7          62.99          6.122          13.44         -140.8           21.8         -58.64          58.46          117.0
     1.026              -53.24          23.59          32.83          62.96          6.116          13.42         -140.1          22.03         -58.07          58.33          117.1
     1.056              -53.12          23.59          32.98          62.93           6.11           13.4         -139.2           22.3         -57.39          58.19          117.2
     1.087              -52.98          23.59          33.16          62.89          6.102          13.38         -138.1          22.62         -56.58          58.01          117.4
     1.117              -52.81           23.6          33.38          62.84          6.092          13.35         -136.8           23.0         -55.61          57.81          117.5
     1.147               -52.6           23.6          33.63          62.78          6.081          13.31         -135.2          23.46         -54.43          57.55          117.7
     1.177              -52.34          23.61          33.95          62.72          6.067          13.27         -133.3          24.03          -53.0          57.24          118.0
     1.207              -52.02          23.62          34.34          62.63           6.05          13.22         -131.0          24.73         -51.23          56.86          118.3
     1.238              -51.63          23.63          34.83          62.53          6.028          13.15         -128.0           25.6         -49.02          56.39          118.7
     1.268              -51.13          23.64          35.45          62.39          6.001          13.06         -124.3           26.7         -46.24          55.79          119.2
